<?xml version="1.0" standalone="no"?>
<!DOCTYPE svg PUBLIC "-//W3C//DTD SVG 20010904//EN"
 "http://www.w3.org/TR/2001/REC-SVG-20010904/DTD/svg10.dtd">
<svg version="1.0" xmlns="http://www.w3.org/2000/svg"
 width="700.000000pt" height="700.000000pt" viewBox="0 0 700.000000 700.000000"
 preserveAspectRatio="xMidYMid meet">
<metadata>
Created by potrace 1.11, written by Peter Selinger 2001-2013
</metadata>
<g transform="translate(0.000000,700.000000) scale(0.100000,-0.100000)"
fill="#000000" stroke="none">
<path d="M3730 6787 c-3 -3 -41 -7 -85 -11 -109 -9 -144 -14 -261 -36 -748
-144 -1397 -555 -1846 -1170 -173 -238 -319 -523 -414 -810 -19 -58 -37 -111
-39 -118 -3 -7 -121 81 -292 218 -158 126 -291 230 -294 230 -3 0 -19 -19 -36
-42 -17 -24 -42 -56 -56 -73 -14 -16 -64 -79 -112 -140 -48 -60 -103 -129
-121 -152 l-34 -41 318 -253 c174 -138 362 -288 418 -333 l101 -81 0 -120 c-1
-115 9 -308 17 -350 2 -11 7 -47 11 -80 53 -468 285 -1012 599 -1410 280 -354
611 -623 1016 -826 236 -118 567 -229 760 -255 25 -3 48 -8 51 -10 3 -1 28 -6
55 -9 27 -4 60 -8 74 -11 156 -25 589 -25 740 0 14 3 47 7 74 11 28 3 80 12
116 20 36 8 77 16 90 19 14 3 34 7 45 10 116 27 99 30 181 -35 41 -33 82 -66
92 -74 9 -8 125 -100 257 -205 132 -106 252 -201 267 -213 15 -12 73 -58 129
-102 55 -44 133 -106 171 -137 l71 -57 180 226 c98 124 175 228 171 233 -12
10 -648 516 -699 555 -63 49 -100 83 -95 87 3 3 28 17 55 33 255 144 572 407
761 630 32 39 62 72 65 75 16 13 171 235 221 315 239 389 388 848 424 1310 13
160 6 495 -11 586 -3 12 -7 43 -10 68 -6 52 -14 99 -20 121 -2 8 -7 31 -10 50
-17 107 -94 360 -162 535 -58 148 -205 416 -311 565 -134 189 -326 401 -494
546 -141 121 -348 266 -478 335 -25 13 -51 28 -58 33 -26 19 -261 125 -354
160 -84 31 -242 81 -291 91 -9 2 -21 6 -25 9 -4 2 -27 7 -52 11 -25 4 -47 8
-50 10 -8 5 -176 34 -236 41 -27 3 -60 7 -74 10 -31 7 -504 17 -510 11z m400
-581 c556 -47 1085 -292 1477 -685 334 -333 567 -763 652 -1201 6 -30 13 -68
16 -85 22 -115 33 -281 30 -452 -1 -105 -5 -195 -8 -200 -2 -4 -8 -37 -11 -73
-4 -36 -18 -115 -31 -175 -131 -606 -495 -1138 -1013 -1482 -106 -70 -373
-213 -397 -213 -8 1 -106 75 -225 173 -8 6 -35 28 -60 47 -25 19 -47 37 -50
40 -3 3 -59 48 -125 100 -66 52 -129 102 -140 112 -11 9 -123 98 -250 198
-360 286 -442 351 -515 410 -37 30 -105 85 -151 121 -133 105 -791 629 -821
652 -14 12 -41 34 -60 49 -74 59 -747 594 -800 637 -39 31 -58 53 -58 68 0 61
73 324 129 466 138 347 366 669 647 912 124 108 139 119 264 201 109 71 105
69 223 129 280 144 598 234 892 252 55 3 101 6 102 7 5 4 220 -2 283 -8z
m-2460 -2782 c41 -32 81 -64 90 -71 8 -7 42 -34 75 -60 101 -80 649 -517 665
-530 8 -7 56 -44 105 -83 50 -40 106 -84 125 -100 119 -95 693 -551 730 -580
25 -19 50 -39 56 -45 6 -5 28 -23 50 -40 21 -16 54 -43 75 -60 20 -16 138
-111 263 -209 124 -99 226 -180 226 -181 0 -5 -326 -6 -395 0 -641 54 -1220
357 -1641 861 -152 182 -313 463 -399 699 -60 161 -140 510 -108 469 4 -5 42
-37 83 -70z"/>
</g>
</svg>
